M48
;GenerationSoftware,Autodesk,EAGLE,9.6.2*%
;CreationDate,2024-12-01T04:04:58Z*%
FMAT,2
ICI,OFF
METRIC,TZ,000.000
T6C0.800
T5C0.900
T4C1.016
T3C1.778
T2C2.500
T1C4.000
%
G90
M71
T1
X68600Y29500
X30500Y29500
X30500Y6500
X68600Y6500
T2
X2500Y2500
X2500Y47500
X47000Y1500
X47500Y47500
T3
X6500Y45540
X21740Y45540
X21740Y4900
X6500Y4900
T4
X2600Y12580
X2600Y17660
X2600Y41540
X2600Y39000
X2600Y36460
X2600Y27820
X2600Y25280
X2600Y32000
X2600Y22740
X2600Y20200
X2600Y15120
T5
X25500Y23000
X35000Y13000
X36000Y31000
X34500Y28500
X46000Y31500
X47000Y19000
X47000Y25000
X35500Y6500
X17000Y15000
X30500Y12920
X30500Y10380
X30500Y23080
X25500Y11500
X30500Y25620
X30500Y20540
X30500Y18000
X30500Y15460
T6
X6500Y43000
X6500Y40460
X6500Y37920
X21740Y22680
X21740Y25220
X21740Y27760
X21740Y30300
X21740Y32840
X21740Y35380
X21740Y37920
X21740Y40460
X21740Y43000
X6500Y7440
X6500Y12520
X21740Y7440
X21740Y9980
X21740Y12520
X21740Y15060
X21740Y17600
X6500Y15060
X6500Y17600
X6500Y9980
X6500Y20140
X6500Y22680
X6500Y25220
X6500Y27760
X6500Y30300
X6500Y32840
X6500Y35380
X21740Y20140
M30