%FSLAX33Y33*MOMM*%
%ADD16C,0.800*%
%ADD15C,0.900*%
%ADD14C,1.016*%
%ADD13C,1.778*%
%ADD12C,2.500*%
%ADD11C,4.000*%
%LPD*%
G01*
D11*
X68600Y29500D03*
X30500D03*
Y6500D03*
X68600D03*
D12*
X2500Y2500D03*
Y47500D03*
X47000Y1500D03*
X47500Y47500D03*
D13*
X6500Y45540D03*
X21740D03*
Y4900D03*
X6500D03*
D14*
X2600Y12580D03*
Y17660D03*
Y41540D03*
Y39000D03*
Y36460D03*
Y27820D03*
Y25280D03*
Y32000D03*
Y22740D03*
Y20200D03*
Y15120D03*
D15*
X25500Y23000D03*
X35000Y13000D03*
X36000Y31000D03*
X34500Y28500D03*
X46000Y31500D03*
X47000Y19000D03*
Y25000D03*
X35500Y6500D03*
X17000Y15000D03*
X30500Y12920D03*
Y10380D03*
Y23080D03*
X25500Y11500D03*
X30500Y25620D03*
Y20540D03*
Y18000D03*
Y15460D03*
D16*
X6500Y43000D03*
Y40460D03*
Y37920D03*
X21740Y22680D03*
Y25220D03*
Y27760D03*
Y30300D03*
Y32840D03*
Y35380D03*
Y37920D03*
Y40460D03*
Y43000D03*
X6500Y7440D03*
Y12520D03*
X21740Y7440D03*
Y9980D03*
Y12520D03*
Y15060D03*
Y17600D03*
X6500Y15060D03*
Y17600D03*
Y9980D03*
Y20140D03*
Y22680D03*
Y25220D03*
Y27760D03*
Y30300D03*
Y32840D03*
Y35380D03*
X21740Y20140D03*
M02*
